# xmcd
#
# Track frame offsets:
#	150
#	18557
#	38910
#	57372
#	78468
#	98926
#	114580
#	138528
#	158094
#	171613
#
# Disc length: 2574 seconds
#
# Revision: 4
# Processed by: cddbd v1.5.2PL0 Copyright (c) Steve Scherf et al.
# Submitted via: EasyCDDAExtractor 16.0.9.1
#
DISCID=880a0c0a
DTITLE=한영애 - special edition 5 PLUS
DYEAR=2002
DGENRE=Blues
TTITLE0=푸른 칵테일의 향기
TTITLE1=바람처럼
TTITLE2=섬아이
TTITLE3=난.다(飛上口)
TTITLE4=봄날은 간다
TTITLE5=꽃신 속의 바다
TTITLE6=문
TTITLE7=야화
TTITLE8=무엇을 하나
TTITLE9=감사의 마음
EXTD=YEAR: 2002 ID3G: 0
EXTT0=
EXTT1=
EXTT2=
EXTT3=
EXTT4=
EXTT5=
EXTT6=
EXTT7=
EXTT8=
EXTT9=
PLAYORDER=
